<mxfile host="Electron" modified="2023-04-02T11:13:21.945Z" agent="Mozilla/5.0 (Windows NT 10.0; Win64; x64) AppleWebKit/537.36 (KHTML, like Gecko) draw.io/21.1.2 Chrome/106.0.5249.199 Electron/21.4.3 Safari/537.36" etag="0UiLKDvbisvPPxUy0g42" version="21.1.2" type="device">
  <diagram name="Page-1" id="goCgEQiEx6BdSj3fYjsd">
    <mxGraphModel dx="1290" dy="629" grid="1" gridSize="10" guides="1" tooltips="1" connect="1" arrows="1" fold="1" page="1" pageScale="1" pageWidth="850" pageHeight="1100" math="0" shadow="0">
      <root>
        <mxCell id="0" />
        <mxCell id="1" parent="0" />
        <mxCell id="GbLoOH4xWeaX75ssoXW5-12" style="edgeStyle=orthogonalEdgeStyle;rounded=0;orthogonalLoop=1;jettySize=auto;html=1;exitX=1;exitY=0.3333333333333333;exitDx=0;exitDy=0;exitPerimeter=0;" edge="1" parent="1" source="GbLoOH4xWeaX75ssoXW5-1">
          <mxGeometry relative="1" as="geometry">
            <mxPoint x="120" y="597" as="targetPoint" />
          </mxGeometry>
        </mxCell>
        <mxCell id="GbLoOH4xWeaX75ssoXW5-1" value="User" style="shape=umlActor;verticalLabelPosition=bottom;verticalAlign=top;html=1;" vertex="1" parent="1">
          <mxGeometry x="80" y="570" width="40" height="80" as="geometry" />
        </mxCell>
        <mxCell id="GbLoOH4xWeaX75ssoXW5-4" value="" style="edgeStyle=orthogonalEdgeStyle;rounded=0;orthogonalLoop=1;jettySize=auto;html=1;endArrow=none;endFill=0;" edge="1" parent="1" source="GbLoOH4xWeaX75ssoXW5-2" target="GbLoOH4xWeaX75ssoXW5-3">
          <mxGeometry relative="1" as="geometry" />
        </mxCell>
        <mxCell id="GbLoOH4xWeaX75ssoXW5-2" value=": Ticket Vendor Machine" style="html=1;whiteSpace=wrap;" vertex="1" parent="1">
          <mxGeometry x="280" y="560" width="120" height="80" as="geometry" />
        </mxCell>
        <mxCell id="GbLoOH4xWeaX75ssoXW5-6" value="" style="edgeStyle=orthogonalEdgeStyle;rounded=0;orthogonalLoop=1;jettySize=auto;html=1;endArrow=none;endFill=0;" edge="1" parent="1" source="GbLoOH4xWeaX75ssoXW5-3" target="GbLoOH4xWeaX75ssoXW5-5">
          <mxGeometry relative="1" as="geometry" />
        </mxCell>
        <mxCell id="GbLoOH4xWeaX75ssoXW5-3" value="Destination" style="html=1;whiteSpace=wrap;" vertex="1" parent="1">
          <mxGeometry x="280" y="320" width="120" height="80" as="geometry" />
        </mxCell>
        <mxCell id="GbLoOH4xWeaX75ssoXW5-8" value="" style="edgeStyle=orthogonalEdgeStyle;rounded=0;orthogonalLoop=1;jettySize=auto;html=1;endArrow=none;endFill=0;" edge="1" parent="1" source="GbLoOH4xWeaX75ssoXW5-5" target="GbLoOH4xWeaX75ssoXW5-7">
          <mxGeometry relative="1" as="geometry" />
        </mxCell>
        <mxCell id="GbLoOH4xWeaX75ssoXW5-23" value="" style="edgeStyle=orthogonalEdgeStyle;rounded=0;orthogonalLoop=1;jettySize=auto;html=1;endArrow=none;endFill=0;" edge="1" parent="1" source="GbLoOH4xWeaX75ssoXW5-5" target="GbLoOH4xWeaX75ssoXW5-22">
          <mxGeometry relative="1" as="geometry">
            <Array as="points">
              <mxPoint x="660" y="200" />
            </Array>
          </mxGeometry>
        </mxCell>
        <mxCell id="GbLoOH4xWeaX75ssoXW5-5" value="Payment mode" style="html=1;whiteSpace=wrap;" vertex="1" parent="1">
          <mxGeometry x="600" y="320" width="120" height="80" as="geometry" />
        </mxCell>
        <mxCell id="GbLoOH4xWeaX75ssoXW5-7" value="Issue Ticket" style="html=1;whiteSpace=wrap;" vertex="1" parent="1">
          <mxGeometry x="600" y="560" width="120" height="80" as="geometry" />
        </mxCell>
        <mxCell id="GbLoOH4xWeaX75ssoXW5-10" value="" style="endArrow=none;html=1;rounded=0;entryX=0;entryY=0.5;entryDx=0;entryDy=0;" edge="1" parent="1" target="GbLoOH4xWeaX75ssoXW5-2">
          <mxGeometry width="50" height="50" relative="1" as="geometry">
            <mxPoint x="120" y="600" as="sourcePoint" />
            <mxPoint x="360" y="480" as="targetPoint" />
          </mxGeometry>
        </mxCell>
        <mxCell id="GbLoOH4xWeaX75ssoXW5-11" value="" style="endArrow=classic;html=1;rounded=0;" edge="1" parent="1">
          <mxGeometry width="50" height="50" relative="1" as="geometry">
            <mxPoint x="160" y="580" as="sourcePoint" />
            <mxPoint x="240" y="580" as="targetPoint" />
            <Array as="points" />
          </mxGeometry>
        </mxCell>
        <mxCell id="GbLoOH4xWeaX75ssoXW5-13" value="1: Buy_a_ticket()" style="text;html=1;strokeColor=none;fillColor=none;align=center;verticalAlign=middle;whiteSpace=wrap;rounded=0;" vertex="1" parent="1">
          <mxGeometry x="150" y="550" width="100" height="30" as="geometry" />
        </mxCell>
        <mxCell id="GbLoOH4xWeaX75ssoXW5-14" value="" style="endArrow=classic;html=1;rounded=0;" edge="1" parent="1">
          <mxGeometry width="50" height="50" relative="1" as="geometry">
            <mxPoint x="320" y="520" as="sourcePoint" />
            <mxPoint x="320" y="440" as="targetPoint" />
          </mxGeometry>
        </mxCell>
        <mxCell id="GbLoOH4xWeaX75ssoXW5-16" value="2: Set_destination()" style="text;html=1;strokeColor=none;fillColor=none;align=center;verticalAlign=middle;whiteSpace=wrap;rounded=0;" vertex="1" parent="1">
          <mxGeometry x="200" y="470" width="110" height="30" as="geometry" />
        </mxCell>
        <mxCell id="GbLoOH4xWeaX75ssoXW5-17" value="" style="endArrow=classic;html=1;rounded=0;" edge="1" parent="1">
          <mxGeometry width="50" height="50" relative="1" as="geometry">
            <mxPoint x="460" y="340" as="sourcePoint" />
            <mxPoint x="540" y="340" as="targetPoint" />
          </mxGeometry>
        </mxCell>
        <mxCell id="GbLoOH4xWeaX75ssoXW5-18" value="3: Choose_payment_method()" style="text;html=1;strokeColor=none;fillColor=none;align=center;verticalAlign=middle;whiteSpace=wrap;rounded=0;" vertex="1" parent="1">
          <mxGeometry x="415" y="310" width="170" height="30" as="geometry" />
        </mxCell>
        <mxCell id="GbLoOH4xWeaX75ssoXW5-19" value="" style="endArrow=classic;html=1;rounded=0;" edge="1" parent="1">
          <mxGeometry width="50" height="50" relative="1" as="geometry">
            <mxPoint x="680" y="442.5" as="sourcePoint" />
            <mxPoint x="680" y="522.5" as="targetPoint" />
          </mxGeometry>
        </mxCell>
        <mxCell id="GbLoOH4xWeaX75ssoXW5-20" value="6: Validate()" style="text;html=1;strokeColor=none;fillColor=none;align=center;verticalAlign=middle;whiteSpace=wrap;rounded=0;" vertex="1" parent="1">
          <mxGeometry x="690" y="470" width="70" height="25" as="geometry" />
        </mxCell>
        <mxCell id="GbLoOH4xWeaX75ssoXW5-22" value="Turn back" style="html=1;whiteSpace=wrap;" vertex="1" parent="1">
          <mxGeometry x="440" y="160" width="120" height="80" as="geometry" />
        </mxCell>
        <mxCell id="GbLoOH4xWeaX75ssoXW5-24" value="" style="endArrow=none;html=1;rounded=0;entryX=0;entryY=0.5;entryDx=0;entryDy=0;exitX=0.5;exitY=0;exitDx=0;exitDy=0;" edge="1" parent="1" source="GbLoOH4xWeaX75ssoXW5-3" target="GbLoOH4xWeaX75ssoXW5-22">
          <mxGeometry width="50" height="50" relative="1" as="geometry">
            <mxPoint x="350" y="470" as="sourcePoint" />
            <mxPoint x="400" y="420" as="targetPoint" />
            <Array as="points">
              <mxPoint x="340" y="200" />
            </Array>
          </mxGeometry>
        </mxCell>
        <mxCell id="GbLoOH4xWeaX75ssoXW5-25" value="" style="endArrow=classic;html=1;rounded=0;" edge="1" parent="1">
          <mxGeometry width="50" height="50" relative="1" as="geometry">
            <mxPoint x="680" y="300" as="sourcePoint" />
            <mxPoint x="680" y="220" as="targetPoint" />
          </mxGeometry>
        </mxCell>
        <mxCell id="GbLoOH4xWeaX75ssoXW5-26" value="4: Change_destination()" style="text;html=1;strokeColor=none;fillColor=none;align=center;verticalAlign=middle;whiteSpace=wrap;rounded=0;" vertex="1" parent="1">
          <mxGeometry x="680" y="250" width="150" height="30" as="geometry" />
        </mxCell>
        <mxCell id="GbLoOH4xWeaX75ssoXW5-27" value="5: Set_destination()" style="text;html=1;strokeColor=none;fillColor=none;align=center;verticalAlign=middle;whiteSpace=wrap;rounded=0;" vertex="1" parent="1">
          <mxGeometry x="200" y="250" width="110" height="30" as="geometry" />
        </mxCell>
        <mxCell id="GbLoOH4xWeaX75ssoXW5-28" value="" style="endArrow=classic;html=1;rounded=0;" edge="1" parent="1">
          <mxGeometry width="50" height="50" relative="1" as="geometry">
            <mxPoint x="320" y="225" as="sourcePoint" />
            <mxPoint x="320" y="305" as="targetPoint" />
          </mxGeometry>
        </mxCell>
      </root>
    </mxGraphModel>
  </diagram>
</mxfile>
